<svg width="48" height="48" fill="none" xmlns="http://www.w3.org/2000/svg"><path d="M9.5 44h29c.275 0 .5-.225.5-.5V14h-8.5c-.827 0-1.5-.673-1.5-1.5V4H9.5c-.275 0-.5.225-.5.5v39c0 .275.225.5.5.5z" fill="#fff"/><path d="M38.293 13 30 4.707V12.5c0 .275.225.5.5.5h7.793z" fill="#fff"/><path opacity=".67" fill-rule="evenodd" clip-rule="evenodd" d="m39.56 12.854-9.414-9.415A1.51 1.51 0 0 0 29.086 3H9.5C8.673 3 8 3.673 8 4.5v39c0 .827.673 1.5 1.5 1.5h29c.827 0 1.5-.673 1.5-1.5V13.914c0-.4-.156-.777-.44-1.06zM30 4.707 38.293 13H30.5a.501.501 0 0 1-.5-.5V4.707zM9.5 44h29c.275 0 .5-.225.5-.5V14h-8.5c-.827 0-1.5-.673-1.5-1.5V4H9.5c-.275 0-.5.225-.5.5v39c0 .276.224.5.5.5z" fill="#605E5C"/><path fill-rule="evenodd" clip-rule="evenodd" d="M12.5 36h23a.5.5 0 0 0 0-1h-23a.5.5 0 0 0 0 1zm0 3h23a.5.5 0 0 0 0-1h-23a.5.5 0 0 0 0 1z" fill="#C8C6C4"/><path d="m27 17.5-6 14" stroke="#69AFE5" stroke-linecap="round"/><path d="m31.5 20.5 4 3.97-4 4.03" stroke="#69AFE5" stroke-linecap="round" stroke-linejoin="round"/><path d="M16.5 29a.5.5 0 0 1-.352-.145l-4-3.97a.5.5 0 0 1-.002-.707l4-4.03a.5.5 0 1 1 .708.704l-3.647 3.675 3.645 3.618A.5.5 0 0 1 16.5 29z" fill="#69AFE5"/></svg>