<svg width="48" height="48" fill="none" xmlns="http://www.w3.org/2000/svg"><path d="M9.5 44h29c.275 0 .5-.225.5-.5V14h-8.5c-.827 0-1.5-.673-1.5-1.5V4H9.5c-.275 0-.5.225-.5.5v39c0 .275.225.5.5.5z" fill="#fff"/><path d="M38.293 13 30 4.707V12.5c0 .275.225.5.5.5h7.793z" fill="#fff"/><path opacity=".67" fill-rule="evenodd" clip-rule="evenodd" d="m39.56 12.854-9.414-9.415A1.51 1.51 0 0 0 29.086 3H9.5C8.673 3 8 3.673 8 4.5v39c0 .827.673 1.5 1.5 1.5h29c.827 0 1.5-.673 1.5-1.5V13.914c0-.4-.156-.777-.44-1.06zM30 4.707 38.293 13H30.5a.501.501 0 0 1-.5-.5V4.707zM9.5 44h29c.275 0 .5-.225.5-.5V14h-8.5c-.827 0-1.5-.673-1.5-1.5V4H9.5c-.275 0-.5.225-.5.5v39c0 .276.224.5.5.5z" fill="#605E5C"/><path fill-rule="evenodd" clip-rule="evenodd" d="M12.5 35h23a.5.5 0 0 0 0-1h-23a.5.5 0 0 0 0 1zm0 3h23a.5.5 0 0 0 0-1h-23a.5.5 0 0 0 0 1z" fill="#C8C6C4"/><path clip-rule="evenodd" d="M24 31.5a6.5 6.5 0 1 0 0-13 6.5 6.5 0 0 0 0 13z" stroke="#69AFE5"/><path clip-rule="evenodd" d="M24 31.5c1.38 0 2.5-2.91 2.5-6.5s-1.12-6.5-2.5-6.5-2.5 2.91-2.5 6.5 1.12 6.5 2.5 6.5z" stroke="#69AFE5"/><path d="M18 23h12v-1H18v1zm0 5h12v-1H18v1z" fill="#69AFE5"/></svg>